Coordinates
version=1
nRows=4
nColumns=138
inDegrees=yes

Units are S.I. units (second, meters, Newtons, ...)
If the header above contains a line with 'inDegrees', this indicates whether rotational values are in degrees (yes) or radians (no).

endheader
time	pelvis_tilt	pelvis_list	pelvis_rotation	pelvis_tx	pelvis_ty	pelvis_tz	L5_S1_FE	L5_S1_LB	L5_S1_AR	L4_L5_FE	L4_L5_LB	L4_L5_AR	T12_L1_FE	T12_L1_LB	T12_L1_AR	T11_T12_FE	T11_T12_LB	T11_T12_AR	T10_T11_FE	T10_T11_LB	T10_T11_AR	T9_T10_FE	T9_T10_LB	T9_T10_AR	T8_T9_FE	T8_T9_LB	T8_T9_AR	T1_T2_FE	T1_T2_LB	T1_T2_AR	T1_head_neck_FE	T1_head_neck_LB	T1_head_neck_AR	hip_flexion_r	hip_adduction_r	hip_rotation_r	knee_angle_r	knee_angle_y_r	knee_angle_x_r	ankle_angle_r	subtalar_angle_r	mtp_angle_r	hip_flexion_l	hip_adduction_l	hip_rotation_l	knee_angle_l	knee_angle_y_l	knee_angle_x_l	ankle_angle_l	subtalar_angle_l	mtp_angle_l	skull_z	skull_y	skull_x	sternoclavicular_r2	sternoclavicular_r3	unrotscap_r3	unrotscap_r2	acromioclavicular_r2	acromioclavicular_r3	acromioclavicular_r1	unrothum_r1	unrothum_r3	unrothum_r2	elv_angle	shoulder_elv	shoulder1_r2	shoulder_rot	elbow_flexion	elbow_x	elbow_y	pro_sup	deviation	flexion	thumb_abd	thumb_flex	TCP2M_lateral	TCP2M_flex	TCP2M2_flex	MCP2_lateral	MCP2_flex	PIP_flex	DIP_flex	MCP2M_lateral	MCP2M_flex	MPIP_flex	MDIP_flex	RCP2M_lateral	RCP2M_flex	RPIP_flex	RDIP_flex	LCP2M_lateral	LCP2M_flex	LPIP_flex	LDIP_flex	sternoclavicular_r2_l	sternoclavicular_r3_l	unrotscap_r3_l	unrotscap_r2_l	acromioclavicular_r2_l	acromioclavicular_r3_l	acromioclavicular_r1_l	unrothum_r1_l	unrothum_r3_l	unrothum_r2_l	elv_angle_l	shoulder_elv_l	shoulder1_r2_l	shoulder_rot_l	elbow_flexion_l	elbow_x_l	elbow_y_l	pro_sup_l	deviation_l	flexion_l	thumb_l_abd	thumb_l_flex	TCP2M_l_lateral	TCP2M_l_flex	TCP2M2_l_flex	MCP2_l_lateral	MCP2_l_flex	PIP_l_flex	DIP_l_flex	MCP2M_l_lateral	MCP2M_l_flex	MPIP_l_flex	MDIP_l_flex	RCP2M_l_lateral	RCP2M_l_flex	RPIP_l_flex	RDIP_l_flex	LCP2M_l_lateral	LCP2M_l_flex	LPIP_l_flex	LDIP_l_flex	ribs_bending
      3.45000000	    112.30608014	     96.32928706	   -198.91651572	      0.28633030	     -0.22705387	      0.84900953	    -15.32825915	      0.14102446	     -0.29990052	      2.14739458	      0.24494802	     -0.28423357	      1.54854462	      0.39778764	     -0.22034665	      0.65144395	      0.38428953	     -0.06292494	      0.06697917	      0.36282283	     -0.04263344	      0.80673566	      0.34139087	     -0.11347303	     -0.33767458	      0.34091434	      0.02844981	      1.53626953	     -0.87574911	      0.22091040	    -12.16653055	     -1.21837306	     -2.03608694	     24.17567276	     -4.41535082	     -4.06212021	    -51.66688801	      4.22590844	      4.68681586	     22.93634154	      5.37832210	     -7.25804102	     32.11590700	     -9.66778387	    -16.58112919	    -86.72419377	     -0.92334136	      3.10120868	     22.44129946	     -8.15601676	     -7.31394632	      6.41313072	     -4.25526779	      2.22000650	    -10.43284573	     -7.82533354	     -4.18567181	      9.88229044	     33.15767032	     16.17107744	      7.26878802	     -7.26878802	    -16.17107744	      2.00096279	    -32.15559668	     40.83581939	     32.15559668	      2.18754619	     76.26963488	      4.25988937	      0.00000000	    -13.09888654	      5.21057951	      1.51714653	     -6.31929310	     11.88757072	      1.37241079	    -16.02384058	      1.06720384	      5.19312640	     28.15590697	     30.31688588	      7.04086177	      3.65249574	     18.88013803	     44.51572578	     10.58324641	     12.71288529	     20.28410623	     48.34203732	     18.38979045	     -9.81602349	      5.71879156	     48.51786280	     14.30985705	    -11.43664566	     -9.06880974	     -4.20712223	      9.93293447	     27.40460183	     16.25394978	      7.30603856	     -7.30603856	    -16.25394978	      2.01121718	    -37.37150977	     41.04509176	     33.26607500	      2.96325061	     95.79988091	     -1.00538966	      0.00000000	     -4.43746765	      2.74675872	     10.21031897	     -6.72973971	      7.62573383	      2.14632704	    -12.36832602	      6.57048596	      9.55467700	     24.84538867	     36.91875946	     13.68436411	      8.75040237	     19.86791326	     41.92459381	     14.51005869	     21.05319282	     19.04649414	     52.96973782	     12.31288453	     -5.66049540	      3.11738767	     49.89273672	     15.87297296	      2.31945405
      3.45830000	    112.40040934	     96.53561794	   -198.74000636	      0.28591682	     -0.22733967	      0.84856009	    -15.43369275	      0.29356060	     -0.29515143	      2.04827073	      0.37731731	     -0.32697308	      1.52805117	      0.45115064	     -0.30182426	      0.65469244	      0.42831845	     -0.13710746	      0.08492955	      0.40284252	     -0.11278395	      0.84495033	      0.37416816	     -0.17692770	     -0.28728124	      0.36727015	     -0.03186932	      1.64340676	     -0.93598745	      0.15569278	    -12.21379745	     -1.18490552	     -2.03395956	     24.02914174	     -4.27283521	     -4.16940680	    -51.68285990	      4.23578721	      4.79395611	     22.93664623	      5.40431170	     -7.25772618	     32.11186963	     -9.18952808	    -17.23617574	    -86.70671171	     -0.84610700	      3.66156962	     22.39751706	     -8.03960419	     -7.31389494	      6.41555292	     -4.25046358	      2.23244891	    -10.33399595	     -7.62436396	     -4.19621938	      9.90719304	     33.23978464	     16.21182730	      7.28710480	     -7.28710480	    -16.21182730	      2.00600506	    -32.19184641	     40.93872247	     32.19184641	      2.30163639	     76.37738396	      4.34913763	      0.00000000	    -13.01963881	      5.18717786	      1.60936688	     -6.29994841	     11.90035442	      1.38232161	    -16.02348358	      1.06794197	      5.18983806	     28.17141070	     30.32055739	      7.04198965	      3.64734834	     18.89257662	     44.52134718	     10.58497044	     12.70727058	     20.29250057	     48.34895123	     18.39221912	     -9.82197712	      5.72025282	     48.52245021	     14.31218643	    -11.37490279	     -9.13105294	     -4.20419940	      9.92603372	     27.46644230	     16.24265761	      7.30096281	     -7.30096281	    -16.24265761	      2.00981992	    -37.22624909	     41.01657635	     33.24077259	      2.93602631	     95.95998936	     -1.02444268	      0.00000000	     -4.34817457	      2.71500507	     10.22777842	     -6.72352409	      7.63277135	      2.14923283	    -12.36446459	      6.57273466	      9.54842651	     24.85432679	     36.91679875	     13.68333800	      8.74183142	     19.87449585	     41.92646722	     14.51067893	     21.04696987	     19.04781782	     52.97382081	     12.31480028	     -5.66811136	      3.11391055	     49.89518705	     15.87596075	      2.31945405
      3.46670000	    112.27875079	     96.48013573	   -198.54722759	      0.28527112	     -0.22830963	      0.84846225	    -15.42517212	      0.30202794	     -0.32986589	      2.04343394	      0.38757532	     -0.36283879	      1.52271847	      0.47872132	     -0.33460731	      0.66481226	      0.46059118	     -0.15788357	      0.09043584	      0.43999927	     -0.12413134	      0.89863711	      0.41520539	     -0.19183413	     -0.24930930	      0.41534079	     -0.03667013	      1.54417140	     -0.80318644	      0.19292398	    -12.31321668	     -1.39945094	     -2.01055001	     23.85419310	     -4.74626780	     -4.67780347	    -51.51517345	      4.33211962	      5.19626234	     22.99768561	      5.66082913	     -7.25046459	     31.81997472	     -8.91550964	    -18.40429265	    -86.33508788	     -0.52021059	      4.23367774	     22.27759327	     -7.52701985	     -7.31648495	      6.55370610	     -4.22084962	      2.13074731	    -10.39534304	     -7.42316924	     -4.21211479	      9.94472181	     33.17566434	     16.27323822	      7.31470858	     -7.31470858	    -16.27323822	      2.01360387	    -32.25732199	     41.09379966	     32.25732199	      2.33089980	     76.68980240	      4.24400550	      0.00000000	    -12.52396708	      4.90322059	      1.96233416	     -6.21163556	     11.96451054	      1.43017114	    -16.01322062	      1.07502689	      5.15836251	     28.24720191	     30.33176719	      7.04508867	      3.60284270	     18.94412444	     44.54161614	     10.58958764	     12.66037275	     20.33108832	     48.38837785	     18.40699905	     -9.86622756	      5.71925064	     48.54753444	     14.32653422	    -11.34816618	     -9.31318841	     -4.18429253	      9.87903399	     27.59881389	     16.16574868	      7.26639278	     -7.26639278	    -16.16574868	      2.00030343	    -36.85797397	     40.82236300	     33.10374723	      2.79776725	     96.27468951	     -1.04811670	      0.00000000	     -3.46867776	      2.29012881	     10.48202763	     -6.64720701	      7.71176073	      2.18782244	    -12.33370448	      6.59075309	      9.49765772	     24.94907057	     36.91351860	     13.67969291	      8.66302463	     19.94211760	     41.95026672	     14.51905768	     20.98310561	     19.07390242	     53.01596782	     12.33322097	     -5.74424208	      3.08829371	     49.91815605	     15.90114155	      2.31945405
      3.47500000	    112.42907379	     96.62704189	   -198.32735617	      0.28500360	     -0.22856446	      0.84861008	    -15.51782737	      0.40765611	     -0.35956298	      1.95021369	      0.47133126	     -0.42504312	      1.50461891	      0.50927531	     -0.42049435	      0.67063425	      0.49028685	     -0.23958183	      0.11130001	      0.47242782	     -0.20276108	      0.93792638	      0.44739001	     -0.26644598	     -0.19673002	      0.44948972	     -0.10776528	      1.65310806	     -0.78201771	      0.13806239	    -12.38279865	     -1.37736770	     -2.00924782	     23.69949711	     -4.58177278	     -4.73677366	    -51.50704612	      4.35369540	      5.24823829	     22.99718045	      5.69276863	     -7.25038611	     31.84743032	     -8.57084613	    -18.93077984	    -86.22172637	     -0.47881352	      4.66858756	     22.25139275	     -7.44879926	     -7.31714710	      6.54099411	     -4.21772333	      2.13726022	    -10.31588102	     -7.25941267	     -4.21896321	      9.96089078	     33.25463230	     16.29969663	      7.32660146	     -7.32660146	    -16.29969663	      2.01687776	    -32.28504186	     41.16061345	     32.28504186	      2.43453669	     76.85489282	      4.33009926	      0.00000000	    -12.47842576	      4.91804941	      2.07638536	     -6.19748684	     11.96841097	      1.43738197	    -16.01649656	      1.07398139	      5.15883157	     28.26417394	     30.33677411	      7.04676574	      3.60174210	     18.95977447	     44.54856774	     10.59188230	     12.65750179	     20.34193095	     48.39554403	     18.40944777	     -9.87090579	      5.72369034	     48.55344243	     14.32930267	    -11.26294678	     -9.31233677	     -4.18402736	      9.87840791	     27.67517566	     16.16472420	      7.26593228	     -7.26593228	    -16.16472420	      2.00017666	    -36.69401762	     40.81977593	     33.08878774	      2.78103277	     96.53238786	     -1.06471345	      0.00000000	     -3.45671657	      2.33855312	     10.53628556	     -6.64452611	      7.70822299	      2.18899110	    -12.33665083	      6.58963664	      9.50056133	     24.95960762	     36.91450478	     13.67989158	      8.66456005	     19.95193874	     41.95369843	     14.52028408	     20.98266844	     19.07835694	     53.01950275	     12.33478081	     -5.74789959	      3.08922684	     49.92176488	     15.90404984	      2.31945405
